Coordinates
version=1
nRows=10
nColumns=63
inDegrees=yes

Units are S.I. units (second, meters, Newtons, ...)
If the header above contains a line with 'inDegrees', this indicates whether rotational values are in degrees (yes) or radians (no).

endheader
time	pelvis_tilt	pelvis_list	pelvis_rotation	pelvis_tx	pelvis_ty	pelvis_tz	hip_flexion_r	hip_adduction_r	hip_rotation_r	knee_angle_r	knee_angle_r_beta	ankle_angle_r	subtalar_angle_r	mtp_angle_r	hip_flexion_l	hip_adduction_l	hip_rotation_l	knee_angle_l	knee_angle_l_beta	ankle_angle_l	subtalar_angle_l	mtp_angle_l	L5_S1_Flex_Ext	L5_S1_Lat_Bending	L5_S1_axial_rotation	L4_L5_Flex_Ext	L4_L5_Lat_Bending	L4_L5_axial_rotation	L3_L4_Flex_Ext	L3_L4_Lat_Bending	L3_L4_axial_rotation	L2_L3_Flex_Ext	L2_L3_Lat_Bending	L2_L3_axial_rotation	L1_L2_Flex_Ext	L1_L2_Lat_Bending	L1_L2_axial_rotation	L1_T12_Flex_Ext	L1_T12_Lat_Bending	L1_T12_axial_rotation	Abs_r3	Abs_r2	Abs_r1	Abs_t1	Abs_t2	neck_flexion	neck_bending	neck_rotation	arm_flex_r	arm_add_r	arm_rot_r	elbow_flex_r	pro_sup_r	wrist_flex_r	wrist_dev_r	arm_flex_l	arm_add_l	arm_rot_l	elbow_flex_l	pro_sup_l	wrist_flex_l	wrist_dev_l
      0.00000000	      2.21595835	     -5.55566432	     88.08766911	      0.23006067	      0.68501965	      0.77668929	      2.27819869	      0.24009580	     14.90829474	      0.81649275	      0.01425049	      9.59867145	    -12.95437592	      0.00000000	      4.89180886	     -4.22753834	     23.82872395	      0.89165612	      0.01556234	      9.39227164	    -18.17411197	      0.00000000	      0.36675951	      0.24377257	      1.12303694	      0.68110909	      0.32421752	      1.19322675	      0.60254920	      0.59270863	      1.19322675	      0.41916945	      0.59270863	      0.98265732	      0.34057288	      0.49710102	      0.91246752	      0.20956639	      0.37760371	      0.84227771	      2.61972653	      2.75760406	      6.24599456	      0.00000000	      0.00000000	     28.33124797	     -7.37034993	    -12.34879813	     18.66212242	      0.73534851	     97.09105500	     25.44491413	     51.23397683	    -12.74215565	     -1.59961994	     20.14557993	     12.55941124	    178.33255311	      3.51525942	      2.22947183	     -1.51209913	    -10.93510018
      0.02500000	      1.96602254	     -5.33321176	     88.99391414	      0.22777291	      0.68550954	      0.77639943	      2.03016186	     -0.29248466	     16.56046817	      0.58871667	      0.01027504	     10.95496481	    -15.14487701	      0.00000000	      4.84508583	     -3.63519958	     23.40302463	      0.74646333	      0.01302824	      7.97426156	    -17.57453682	      0.00000000	      0.37236442	      0.21061200	      0.88473882	      0.69151796	      0.28011396	      0.94003500	      0.61175750	      0.51208202	      0.94003500	      0.42557529	      0.51208202	      0.77414647	      0.34577760	      0.42947999	      0.71885029	      0.21276903	      0.32623799	      0.66355411	      2.65976178	      2.38248508	      4.92065189	      0.00000000	      0.00000000	     28.29733664	     -6.40442813	    -11.23529261	     19.95677593	      1.22304764	    103.18137900	     26.25558099	     17.69386475	     -6.98137492	     -1.93551421	     20.86674566	     11.71351756	    167.16796163	      6.19405474	      2.56996172	      0.74365125	    -11.95951615
      0.05000000	      1.99516395	     -5.12962161	     89.65471880	      0.22582510	      0.68583451	      0.77648395	      1.84768858	     -0.48106669	     17.03598339	      0.50516887	      0.00881686	     12.04333489	    -15.36662283	      0.00000000	      4.79021354	     -3.39929590	     22.96842909	      0.65083289	      0.01135918	      7.22505432	    -17.25702364	      0.00000000	      0.37240845	      0.20595459	      0.75064685	      0.69159973	      0.27391960	      0.79756228	      0.61182984	      0.50075799	      0.79756228	      0.42562562	      0.50075799	      0.65681599	      0.34581848	      0.41998260	      0.60990056	      0.21279419	      0.31902366	      0.56298514	      2.66007630	      2.32979950	      4.17487257	      0.00000000	      0.00000000	     28.25401851	     -5.90598294	    -11.05988757	     20.42271290	      1.14432585	    103.14010461	     26.50315519	     17.44405923	     -6.66049885	     -1.42292026	     20.93798199	     11.56058246	    166.92251269	      6.33668986	      2.40019124	      1.08509460	    -12.36039499
      0.07500000	      1.59279846	     -4.75548404	     90.46601709	      0.22358298	      0.68626671	      0.77709596	      1.47489816	     -1.09187971	     17.27157097	      0.46390737	      0.00809671	     12.46955425	    -16.09673933	      0.00000000	      4.63984712	     -2.70555211	     22.47128584	      0.65892038	      0.01150033	      7.25952147	    -16.28117022	      0.00000000	      0.33748972	      0.15414030	      0.55062507	      0.62675216	      0.20500660	      0.58503914	      0.55446186	      0.37477673	      0.58503914	      0.38571700	      0.37477673	      0.48179694	      0.31339295	      0.31432290	      0.44738287	      0.19284163	      0.23876333	      0.41296880	      2.41065532	      1.74366591	      3.06241145	      0.00000000	      0.00000000	     28.22450990	     -3.99869584	     -9.05643980	     20.66549470	      1.31619471	    102.29067449	     26.77599590	      8.05597433	     -5.31746117	      0.61281105	     21.20899821	     11.01127264	    162.49209873	      7.20771721	      2.73862275	      1.88359099	    -13.23174278
      0.10000000	      1.45074144	     -4.43239142	     90.95971904	      0.22169492	      0.68658924	      0.77789982	      1.19667518	     -1.39952915	     17.48785529	      0.46463563	      0.00810942	     12.89431577	    -16.06588517	      0.00000000	      4.49330736	     -2.32795835	     22.21979266	      0.67061508	      0.01170444	      7.64503934	    -16.30985517	      0.00000000	      0.30305449	      0.12635333	      0.43251322	      0.56280250	      0.16804992	      0.45954530	      0.49788823	      0.30721547	      0.45954530	      0.34636098	      0.30721547	      0.37844907	      0.28141640	      0.25765970	      0.35141699	      0.17316534	      0.19572130	      0.32438492	      2.16468795	      1.42933408	      2.40550879	      0.00000000	      0.00000000	     28.17458240	     -2.93651227	     -8.65392189	     20.89820017	      1.38964022	    102.01799624	     26.51576351	      7.98007395	     -5.22380711	      0.62072554	     21.15027330	     10.97902891	    162.60726957	      6.85643059	      2.79350441	      1.63285959	    -13.47483919
      0.12500000	      1.24461359	     -4.21131044	     91.53655868	      0.21951335	      0.68683589	      0.77878713	      1.01879433	     -1.76605797	     17.29576673	      0.46139670	      0.00805289	     13.27509867	    -15.80679378	      0.00000000	      4.47919036	     -1.90271581	     22.00791267	      0.70618144	      0.01232519	      8.50113579	    -15.80260590	      0.00000000	      0.28155750	      0.10377917	      0.27959782	      0.52288044	      0.13802629	      0.29707268	      0.46257082	      0.25232867	      0.29707268	      0.32179207	      0.25232867	      0.24464809	      0.26145430	      0.21162648	      0.22717323	      0.16088196	      0.16075393	      0.20969837	      2.01113709	      1.17397070	      1.55503920	      0.00000000	      0.00000000	     28.15453444	     -1.02538441	     -6.25375113	     20.58211202	      1.38676597	     99.63162315	     26.19189036	      8.18260170	     -5.11063326	      1.17178540	     20.59929687	     11.18906231	    168.49217803	      4.82604484	      2.32031976	      0.72205090	    -14.29326884
      0.15000000	      1.13859851	     -4.04571631	     91.88911802	      0.21723154	      0.68710406	      0.77956894	      0.94012953	     -2.04836621	     17.66929459	      0.47473288	      0.00828565	     13.93630303	    -15.90812763	      0.00000000	      4.47209919	     -1.59513747	     22.32975832	      0.75083417	      0.01310453	      9.51684168	    -15.97630947	      0.00000000	      0.26786424	      0.09616084	      0.14741180	      0.49745067	      0.12789392	      0.15662504	      0.44007415	      0.23380548	      0.15662504	      0.30614203	      0.23380548	      0.12898533	      0.24873873	      0.19609119	      0.11977209	      0.15305762	      0.14895315	      0.11055885	      1.91332745	      1.08779070	      0.81986023	      0.00000000	      0.00000000	     28.13110018	      0.51264688	     -4.13046838	     20.36408106	      1.45789520	     98.58887783	     25.64762281	      8.28835701	     -4.84579659	      0.64728389	     20.42957918	     11.14454084	    167.80394247	      4.44234266	      2.07572201	      0.33696466	    -14.43711885
      0.17500000	      1.19440172	     -3.98766849	     92.02768966	      0.21495240	      0.68727841	      0.78048798	      1.11374545	     -2.16707803	     18.35059155	      0.49229719	      0.00859221	     15.08169270	    -15.88692263	      0.00000000	      4.59773059	     -1.44312440	     22.39374503	      0.81324075	      0.01419373	     11.22468574	    -16.38884327	      0.00000000	      0.26191538	      0.10332311	      0.03876095	      0.48640304	      0.13741973	      0.04118351	      0.43030077	      0.25121980	      0.04118351	      0.29934308	      0.25121980	      0.03391583	      0.24321462	      0.21069648	      0.03149327	      0.14965845	      0.16004749	      0.02907071	      1.87083534	      1.16881165	      0.21557679	      0.00000000	      0.00000000	     28.12646794	      0.95101898	     -3.57294339	     20.31711181	      1.51481643	     98.31869082	     25.30837082	      8.39933337	     -4.83850813	      0.50647691	     20.35747150	     11.11357394	    167.28429678	      4.15194272	      1.81072943	      0.19092952	    -14.47644558
      0.20000000	      1.48049487	     -4.04396111	     92.22698059	      0.21198490	      0.68743567	      0.78190411	      1.56443546	     -2.09958382	     19.35410612	      0.48273996	      0.00842540	     16.40084700	    -16.00247567	      0.00000000	      5.00804765	     -1.49399640	     21.61074302	      0.96546708	      0.01685058	     14.07171725	    -15.18011303	      0.00000000	      0.25795755	      0.16516676	     -0.13804129	      0.47905297	      0.21967179	     -0.14666887	      0.42379847	      0.40158647	     -0.14666887	      0.29481969	      0.40158647	     -0.12078613	      0.23953939	      0.33680806	     -0.11215855	      0.14739695	      0.25584331	     -0.10353097	      1.84256502	      1.86839945	     -0.76774424	      0.00000000	      0.00000000	     28.11329821	      3.19181649	      0.77769832	     19.95427144	      1.29621848	     95.89186626	     24.97480880	     14.15183053	     -4.92411274	      0.65629714	     21.23482055	     10.21087037	    149.11152348	      8.58978244	      2.99086004	      0.00561055	    -14.50000026
      0.22500000	      1.72339903	     -4.30832724	     92.26117790	      0.20938570	      0.68758486	      0.78325164	      2.34325401	     -2.04819331	     20.10853229	      0.47392359	      0.00827153	     18.08773185	    -15.68171119	      0.00000000	      5.65158987	     -1.50187917	     20.73988538	      1.09086544	      0.01903919	     16.87135781	    -14.53933327	      0.00000000	      0.26961874	      0.22056692	     -0.29546875	      0.50070896	      0.29335400	     -0.31393554	      0.44295663	      0.53628640	     -0.31393554	      0.30814726	      0.53628640	     -0.25853515	      0.25036796	      0.44978006	     -0.24006836	      0.15406015	      0.34165816	     -0.22160156	      1.92585969	      2.49509708	     -1.64330854	      0.00000000	      0.00000000	     28.09153766	      4.50688147	      4.15262065	     19.86626726	      1.20967660	     95.50264919	     24.86645197	     14.57061685	     -4.98790343	      0.10896998	     21.25120786	      9.99277695	    145.52433720	      9.01606445	      2.45692480	      0.36701196	    -14.71919784
